# xmcd
#
# Track frame offsets:
#	150
#	37382
#	74817
#	106922
#	133372
#	168617
#	217235
#	249695
#	271752
#	302707
#
# Disc length: 4483 seconds
#
# Revision: 4
# Processed by: cddbd v1.5.2PL0 Copyright (c) Steve Scherf et al.
# Submitted via: audiograbber 1.83.01
#
DISCID=a811810a
DTITLE=Grandmaster Flash, The Furious Five and Grandmaster Melle Mel - Adventures
DTITLE=on the Wheels of Steel [CD1]
DYEAR=1999
DGENRE=Hip Hop
TTITLE0=01. Grandmaster Flash and The Furious Five - Freedom
TTITLE1=02. Grandmaster Flash and The Furious Five - The Birthday Party
TTITLE2=03. Grandmaster Flash - The Adventures of Grandmaster Flash on the Whee
TTITLE2=ls of Steel
TTITLE3=04. Furious Five, The Meet Sugarhill Gang - Showdown
TTITLE4=05. Grandmaster Flash and The Furious Five - It's Nasty (Genius Of Love)
TTITLE5=06. Grandmaster Flash - Flash to the Beat
TTITLE6=07. Grandmaster Flash and The Furious Five - The Message
TTITLE7=08. Grandmaster Flash - Scorpio
TTITLE8=09. Melle Mel and Duke Bootee - Message II (Survival)
TTITLE9=10. Grandmaster Flash and The Furious Five - New York New York
EXTD=grandmaster flash.\nthe furious five.\ngrandmaster melle mel.
EXTT0=
EXTT1=
EXTT2=
EXTT3=
EXTT4=
EXTT5=
EXTT6=
EXTT7=
EXTT8=
EXTT9=
PLAYORDER=
